<?xml version="1.0" standalone="no"?><!DOCTYPE svg PUBLIC "-//W3C//DTD SVG 1.1//EN" "http://www.w3.org/Graphics/SVG/1.1/DTD/svg11.dtd"><svg class="icon" width="40px" height="40.00px" viewBox="0 0 1024 1024" version="1.1" xmlns="http://www.w3.org/2000/svg"><path fill="#f1f1f1" d="M1012 511.8c0 276.6-224.4 500.6-501 500.2C235.6 1011.6 12 787.6 12 512.2 12 235.8 236.4 11.6 513 12 788.4 12.4 1012 236.4 1012 511.8zM512 972c254.2 0 459.8-206.4 460-461.8 0.2-251-206.8-457.6-458.8-458.2C259 51.4 51.8 258.2 52 512.6 52.2 765.6 258.8 972 512 972z"  /><path fill="#f1f1f1" d="M411.8 263.2c-36-18-79.6 6.4-81.4 46.6v405.6c1.8 40.8 47 64.6 82.4 44.6l333.4-208c38-24.8 35.8-81-3.8-102.8l-330.6-186z"  /></svg>