<?xml version="1.0" standalone="no"?><!DOCTYPE svg PUBLIC "-//W3C//DTD SVG 1.1//EN" "http://www.w3.org/Graphics/SVG/1.1/DTD/svg11.dtd"><svg class="icon" width="25px" height="25.00px" viewBox="0 0 1024 1024" version="1.1" xmlns="http://www.w3.org/2000/svg"><path fill="#f1f1f1" d="M96.6 541.6c17.7 0 32-14.3 32-32v-79.5c0-110.4 89.8-200.2 200.2-200.2H857l-43.8 43.8c-12.5 12.5-12.5 32.8 0 45.3 6.2 6.2 14.4 9.4 22.6 9.4s16.4-3.1 22.6-9.4l90.1-90.1c7.3-7.3 11.3-17.1 11.3-27.4 0-10.4-4-20.1-11.3-27.4l-90-90.1c-12.5-12.5-32.8-12.5-45.3 0s-12.5 32.8 0 45.3L850 166H328.7c-70.3 0-136.6 27.5-186.6 77.6S64.6 359.9 64.6 430.2v79.5c0 17.6 14.3 31.9 32 31.9zM928 482.5c-17.7 0-32 14.3-32 32V594c0 110.4-89.8 200.2-200.2 200.2H167.5l43.8-43.8c12.5-12.5 12.5-32.8 0-45.3s-32.8-12.5-45.3 0l-90.1 90.1c-15.1 15.1-15.1 39.7 0 54.8l90.1 90.1c6.2 6.2 14.4 9.4 22.6 9.4s16.4-3.1 22.6-9.4c12.5-12.5 12.5-32.8 0-45.3L174.4 858h521.3c70.3 0 136.6-27.5 186.6-77.6S960 664.2 960 593.9v-79.5c0-17.6-14.4-31.9-32-31.9zM543.3 641.3V381.9h-49.2c0 6.8-2.8 13.7-8.5 20.8-5.7 7.1-12.7 10.7-20.9 10.7v37.8h21.7v190.1h56.9z" /></svg>