<?xml version="1.0" standalone="no"?><!DOCTYPE svg PUBLIC "-//W3C//DTD SVG 1.1//EN" "http://www.w3.org/Graphics/SVG/1.1/DTD/svg11.dtd"><svg class="icon" width="30px" height="30.00px" viewBox="0 0 1024 1024" version="1.1" xmlns="http://www.w3.org/2000/svg"><path fill="#f1f1f1" d="M849.413762 44.734241c-12.776099 0-31.953029 6.390606-38.343635 12.781211l-632.67508801 389.826955c-12.781212 12.786324-25.562423 25.562423-25.56242299 44.73424l0-466.514224c0-12.781212-12.781212-25.562423-31.953029-25.562423-12.781212 0-25.562423 12.781212-25.562423 25.562423L95.317164 990.54390001c0 19.171817 12.781212 31.947917 25.562423 31.94791699s25.562423-12.781212 25.562423-25.562423l0-466.514224c0 19.171817 12.781212 31.953029 25.562423 38.343635l632.66997599 396.21756c12.781212 6.385493 25.562423 12.781212 44.73424001 12.781211 38.34363499 0 76.692382-31.947917 76.69238201-70.296664l-1e-8-792.43512c0.005112-38.338522-38.343635-70.291551-76.687269-70.291551z m19.171817 862.731784c0 12.781212-19.171817 19.171817-25.562423 12.781212l-639.060581-396.217561c-6.385493-6.390606-6.385493-12.781212-6.385493-12.781211s0-6.390606 6.385493-12.786324L836.637663 102.249693l12.776099 0c6.390606 0 19.171817 6.385493 19.171817 12.781212l0 792.43512z m0 0"  /></svg>