<?xml version="1.0" standalone="no"?><!DOCTYPE svg PUBLIC "-//W3C//DTD SVG 1.1//EN" "http://www.w3.org/Graphics/SVG/1.1/DTD/svg11.dtd"><svg class="icon" width="25px" height="25.00px" viewBox="0 0 1024 1024" version="1.1" xmlns="http://www.w3.org/2000/svg"><path fill="#f1f1f1" d="M928 476.8c-19.2 0-32 12.8-32 32v86.4c0 108.8-86.4 198.4-198.4 198.4H201.6l41.6-38.4c6.4-6.4 12.8-16 12.8-25.6 0-19.2-16-35.2-35.2-35.2-9.6 0-22.4 3.2-28.8 9.6l-108.8 99.2c-16 12.8-12.8 35.2 0 48L192 947.2c6.4 6.4 19.2 12.8 28.8 12.8 19.2 0 35.2-12.8 38.4-32 0-12.8-6.4-22.4-16-28.8l-48-44.8h499.2c147.2 0 265.6-118.4 265.6-259.2V508.8c0-19.2-12.8-32-32-32zM96 556.8c19.2 0 32-12.8 32-32V435.2c0-112 89.6-201.6 198.4-204.8h496l-41.6 38.4c-6.4 6.4-12.8 16-12.8 25.6 0 19.2 16 35.2 35.2 35.2 9.6 0 22.4-3.2 28.8-9.6l105.6-99.2c16-12.8 12.8-35.2 0-48L828.8 76.8c-6.4-6.4-19.2-12.8-28.8-12.8-19.2 0-35.2 12.8-38.4 32 0 12.8 6.4 22.4 16 28.8l48 44.8H329.6c-147.2 0-265.6 118.4-265.6 268.8V524.8c0 19.2 12.8 32 32 32z" /></svg>